<?xml version="1.0" encoding="UTF-8"?>
<!-- Generated by jsxcad -->
<!DOCTYPE svg PUBLIC "-//W3C//DTD SVG 1.1 Tiny//EN" "http://www.w3.org/Graphics/SVG/1.1/DTD/svg11-tiny.dtd">
<svg viewBox="-250 -250 500 500" width="500" height="500" xmlns="http://www.w3.org/2000/svg"><path d="M-45.418329986967706,-116.49054513168316L63.268392283200455,100.05458085190932L62.60800006083997,98.64697514880574z" style="fill:rgb(242,183,130)"/><path d="M45.252757347414004,110.4348275886994L-68.07809983538297,-103.76402450581232L44.26581944015734,109.21364599247904z" style="fill:rgb(21,57,142)"/><path d="M-44.80487269975763,-115.15528695735009L63.55215093928963,101.61554841370344L63.268392283200455,100.05458085190932z" style="fill:rgb(246,167,149)"/><path d="M46.558273575714715,111.4086130763274L-67.06878692288268,-102.64915024582204L45.252757347414004,110.4348275886994z" style="fill:rgb(34,46,160)"/><path d="M63.55215093928963,101.61554841370344L-44.96008000625511,-111.94768992773166L63.446666873145766,103.27011762338233z" style="fill:rgb(246,149,167)"/><path d="M48.13302268151336,112.0961886653141L-65.65739438613583,-101.81903492817462L46.558273575714715,111.4086130763274z" style="fill:rgb(51,38,177)"/><path d="M63.446666873145766,103.27011762338233L-45.727410262551786,-110.1982903012305L62.95446801509179,104.95434142638821z" style="fill:rgb(242,130,183)"/><path d="M-61.85410331894851,-101.13583740406374L48.13302268151336,112.0961886653141L49.91666851578653,112.46968557747087z" style="fill:rgb(71,33,192)"/><path d="M62.95446801509179,104.95434142638821L-46.923287219801196,-108.44147540775565L62.09335559427106,106.60266143099402z" style="fill:rgb(233,112,197)"/><path d="M-59.608399670663644,-101.31230765536614L49.91666851578653,112.46968557747087L51.84018456415541,112.51348709793649z" style="fill:rgb(92,32,204)"/><path d="M62.09335559427106,106.60266143099402L-48.50232878240897,-106.74621634463051L60.89590815370285,108.15046160151722z" style="fill:rgb(220,94,208)"/><path d="M-57.24740065549026,-101.83102341773707L51.84018456415541,112.51348709793649L53.8285588344679,112.22501388177864z" style="fill:rgb(115,34,214)"/><path d="M60.89590815370285,108.15046160151722L-50.40343773785167,-105.17947430436158L59.40829186081109,109.53682227020197z" style="fill:rgb(203,77,216)"/><path d="M-50.40343773785167,-105.17947430436158L57.68846565412752,110.70703971484623L59.40829186081109,109.53682227020197z" style="fill:rgb(183,62,221)"/><path d="M-54.86397066962463,-102.67230603064466L53.8285588344679,112.22501388177864L55.8038669220585,111.61499033402926z" style="fill:rgb(139,40,220)"/><path d="M-52.552205436356914,-103.8033245812687L55.8038669220585,111.61499033402926L57.68846565412752,110.70703971484623z" style="fill:rgb(162,50,222)"/><path d="M63.268392283200455,100.05458085190932L-45.418329986967706,-116.49054513168316L-44.80487269975763,-115.15528695735009z" style="fill:rgb(242,183,130)"/><path d="M-68.07809983538297,-103.76402450581232L45.252757347414004,110.4348275886994L-67.06878692288268,-102.64915024582204z" style="fill:rgb(21,57,142)"/><path d="M63.55215093928963,101.61554841370344L-44.80487269975763,-115.15528695735009L-44.64930283804523,-113.62152669767929z" style="fill:rgb(246,167,149)"/><path d="M-67.06878692288268,-102.64915024582204L46.558273575714715,111.4086130763274L-65.65739438613583,-101.81903492817462z" style="fill:rgb(34,46,160)"/><path d="M-44.96008000625511,-111.94768992773166L63.55215093928963,101.61554841370344L-44.64930283804523,-113.62152669767929z" style="fill:rgb(246,149,167)"/><path d="M-65.65739438613583,-101.81903492817462L48.13302268151336,112.0961886653141L-63.896770946481205,-101.30744565677162z" style="fill:rgb(51,38,177)"/><path d="M-45.727410262551786,-110.1982903012305L63.446666873145766,103.27011762338233L-44.96008000625511,-111.94768992773166z" style="fill:rgb(242,130,183)"/><path d="M48.13302268151336,112.0961886653141L-61.85410331894851,-101.13583740406374L-63.896770946481205,-101.30744565677162z" style="fill:rgb(71,33,192)"/><path d="M-46.923287219801196,-108.44147540775565L62.95446801509179,104.95434142638821L-45.727410262551786,-110.1982903012305z" style="fill:rgb(233,112,197)"/><path d="M49.91666851578653,112.46968557747087L-59.608399670663644,-101.31230765536614L-61.85410331894851,-101.13583740406374z" style="fill:rgb(92,32,204)"/><path d="M-48.50232878240897,-106.74621634463051L62.09335559427106,106.60266143099402L-46.923287219801196,-108.44147540775565z" style="fill:rgb(220,94,208)"/><path d="M51.84018456415541,112.51348709793649L-57.24740065549026,-101.83102341773707L-59.608399670663644,-101.31230765536614z" style="fill:rgb(115,34,214)"/><path d="M-50.40343773785167,-105.17947430436158L60.89590815370285,108.15046160151722L-48.50232878240897,-106.74621634463051z" style="fill:rgb(203,77,216)"/><path d="M53.8285588344679,112.22501388177864L-54.86397066962463,-102.67230603064466L-57.24740065549026,-101.83102341773707z" style="fill:rgb(139,40,220)"/><path d="M57.68846565412752,110.70703971484623L-50.40343773785167,-105.17947430436158L-52.552205436356914,-103.8033245812687z" style="fill:rgb(183,62,221)"/><path d="M55.8038669220585,111.61499033402926L-52.552205436356914,-103.8033245812687L-54.86397066962463,-102.67230603064466z" style="fill:rgb(162,50,222)"/><path d="M-68.4130457196615,-108.33135161300794L-68.6486313185735,-105.11923333559825L-67.62050040338114,-110.06461239204238zM-64.84371406158452,-113.45958257366085L-63.896770946481205,-101.30744565677162L-62.96623258634963,-114.99403025082019zM-66.41511547958585,-111.79572147227671L-65.65739438613583,-101.81903492817462L-64.84371406158452,-113.45958257366085zM-62.96623258634963,-114.99403025082019L-61.85410331894851,-101.13583740406374L-60.853490531269124,-116.34189196110687zM-67.62050040338114,-110.06461239204238L-67.06878692288268,-102.64915024582204L-66.41511547958585,-111.79572147227671zM-60.853490531269124,-116.34189196110687L-59.608399670663644,-101.31230765536614L-58.584655606799764,-117.4529719156261zM-58.584655606799764,-117.4529719156261L-57.24740065549026,-101.83102341773707L-56.2445267163971,-118.28565915622984zM-68.6486313185735,-105.11923333559825L-68.4130457196615,-108.33135161300794L-68.7609020571719,-106.66158137622288zM-56.2445267163971,-118.28565915622984L-54.86397066962463,-102.67230603064466L-53.92060774987026,-118.80846298699292zM-67.62050040338114,-110.06461239204238L-68.6486313185735,-105.11923333559825L-68.07809983538297,-103.76402450581232zM-53.92060774987026,-118.80846298699292L-52.552205436356914,-103.8033245812687L-51.700116263461084,-119.00106120857923zM-51.700116263461084,-119.00106120857923L-50.40343773785167,-105.17947430436158L-49.666954215566776,-118.85517529511573zM-67.62050040338114,-110.06461239204238L-68.07809983538297,-103.76402450581232L-67.06878692288268,-102.64915024582204zM-49.666954215566776,-118.85517529511573L-48.50232878240897,-106.74621634463051L-47.89869033035999,-118.37497656217475zM-66.41511547958585,-111.79572147227671L-67.06878692288268,-102.64915024582204L-65.65739438613583,-101.81903492817462zM-47.89869033035999,-118.37497656217475L-46.923287219801196,-108.44147540775565L-46.463667032820034,-117.57716017675554zM-64.84371406158452,-113.45958257366085L-65.65739438613583,-101.81903492817462L-63.896770946481205,-101.30744565677162zM-46.463667032820034,-117.57716017675554L-45.727410262551786,-110.1982903012305L-45.418329986967706,-116.49054513168316zM-62.96623258634963,-114.99403025082019L-63.896770946481205,-101.30744565677162L-61.85410331894851,-101.13583740406374zM-60.853490531269124,-116.34189196110687L-61.85410331894851,-101.13583740406374L-59.608399670663644,-101.31230765536614zM-45.418329986967706,-116.49054513168316L-45.727410262551786,-110.1982903012305L-44.80487269975763,-115.15528695735009zM-58.584655606799764,-117.4529719156261L-59.608399670663644,-101.31230765536614L-57.24740065549026,-101.83102341773707zM-44.80487269975763,-115.15528695735009L-44.96008000625511,-111.94768992773166L-44.64930283804523,-113.62152669767929zM-56.2445267163971,-118.28565915622984L-57.24740065549026,-101.83102341773707L-54.86397066962463,-102.67230603064466zM-53.92060774987026,-118.80846298699292L-54.86397066962463,-102.67230603064466L-52.552205436356914,-103.8033245812687zM-46.463667032820034,-117.57716017675554L-46.923287219801196,-108.44147540775565L-45.727410262551786,-110.1982903012305zM-51.700116263461084,-119.00106120857923L-52.552205436356914,-103.8033245812687L-50.40343773785167,-105.17947430436158zM-47.89869033035999,-118.37497656217475L-48.50232878240897,-106.74621634463051L-46.923287219801196,-108.44147540775565zM-49.666954215566776,-118.85517529511573L-50.40343773785167,-105.17947430436158L-48.50232878240897,-106.74621634463051zM-44.80487269975763,-115.15528695735009L-45.727410262551786,-110.1982903012305L-44.96008000625511,-111.94768992773166z" style="fill:rgb(83,212,212)"/><path d="M-46.59906930731071,-140.8674856104638L-35.83291583696176,-118.93166717994355L-36.934687296673665,-121.25526073114052z" style="fill:rgb(242,183,130)"/><path d="M-74.84685140273074,-97.01408906384793L-86.94425516261504,-118.26084036614942L-76.58931451553529,-98.98383140728032z" style="fill:rgb(21,57,142)"/><path d="M-45.51018994987046,-138.56856977749348L-35.53192124962375,-116.25331796731437L-35.83291583696176,-118.93166717994355z" style="fill:rgb(246,167,149)"/><path d="M-87.36242912636065,-126.22413634553189L-87.89727010970648,-120.6230782886977L-85.90921581182266,-129.2470996232427zM-83.73631834945381,-132.26802085235815L-82.74168563078715,-114.8799931907383L-80.92868556194104,-135.17529171451088zM-80.92868556194104,-135.17529171451088L-79.64240284069346,-114.00207025473091L-77.5926981709326,-137.86261582904126zM-85.90921581182266,-129.2470996232427L-85.2056853254314,-116.31995603160307L-83.73631834945381,-132.26802085235815zM-77.5926981709326,-137.86261582904126L-76.02526418251486,-113.72563098673409L-73.85231246674599,-140.23229337986152zM-73.85231246674599,-140.23229337986152L-72.03076988423193,-114.06599849255392L-69.84493427107503,-142.19814865873806z" style="fill:rgb(83,212,212)"/><path d="M-72.39275471073988,-95.53985241280161L-85.2056853254314,-116.31995603160307L-74.84685140273074,-97.01408906384793z" style="fill:rgb(34,46,160)"/><path d="M-87.89727010970648,-120.6230782886977L-87.36242912636065,-126.22413634553189L-88.03587756880123,-123.3124351845533zM-69.84493427107503,-142.19814865873806L-67.8169023653513,-115.01304108378935L-65.71707940632515,-143.6881007541219zM-65.71707940632515,-143.6881007541219L-67.8169023653513,-115.01304108378935L-61.619844033437,-144.64651429252874z" style="fill:rgb(83,212,212)"/><path d="M-35.83291583696176,-118.93166717994355L-46.59906930731071,-140.8674856104638L-45.51018994987046,-138.56856977749348z" style="fill:rgb(242,183,130)"/><path d="M-85.90921581182266,-129.2470996232427L-87.89727010970648,-120.6230782886977L-86.94425516261504,-118.26084036614942z" style="fill:rgb(83,212,212)"/><path d="M-35.53192124962375,-116.25331796731437L-45.791770550843076,-132.9843249142555L-36.05090959466939,-113.32144608705141z" style="fill:rgb(246,149,167)"/><path d="M-61.619844033437,-144.64651429252874L-59.4091040754306,-118.56031748940724L-57.70417271338728,-145.03597861029976z" style="fill:rgb(83,212,212)"/><path d="M-69.3169701698327,-94.62343973178473L-82.74168563078715,-114.8799931907383L-72.39275471073988,-95.53985241280161z" style="fill:rgb(51,38,177)"/><path d="M-86.94425516261504,-118.26084036614942L-74.84685140273074,-97.01408906384793L-85.2056853254314,-116.31995603160307z" style="fill:rgb(21,57,142)"/><path d="M-57.70417271338728,-145.03597861029976L-55.55428304462341,-121.01889301301695L-54.116061357084284,-144.83892174495318zM-85.90921581182266,-129.2470996232427L-86.94425516261504,-118.26084036614942L-85.2056853254314,-116.31995603160307z" style="fill:rgb(83,212,212)"/><path d="M-35.53192124962375,-116.25331796731437L-45.51018994987046,-138.56856977749348L-45.23493950440733,-135.90736174988203z" style="fill:rgb(246,167,149)"/><path d="M-36.05090959466939,-113.32144608705141L-47.16613727372923,-129.9122777504902L-37.37660427479688,-110.24928189224623z" style="fill:rgb(242,130,183)"/><path d="M-83.73631834945381,-132.26802085235815L-85.2056853254314,-116.31995603160307L-82.74168563078715,-114.8799931907383zM-54.116061357084284,-144.83892174495318L-55.55428304462341,-121.01889301301695L-50.991596042419324,-144.0585784331219z" style="fill:rgb(83,212,212)"/><path d="M-76.02526418251486,-113.72563098673409L-69.3169701698327,-94.62343973178473L-65.73613508274693,-94.30566996521827z" style="fill:rgb(71,33,192)"/><path d="M-50.991596042419324,-144.0585784331219L-49.3099702685708,-126.81198961251857L-48.452051890612935,-142.71949895422588z" style="fill:rgb(83,212,212)"/><path d="M-85.2056853254314,-116.31995603160307L-72.39275471073988,-95.53985241280161L-82.74168563078715,-114.8799931907383z" style="fill:rgb(34,46,160)"/><path d="M-45.791770550843076,-132.9843249142555L-35.53192124962375,-116.25331796731437L-45.23493950440733,-135.90736174988203z" style="fill:rgb(246,149,167)"/><path d="M-80.92868556194104,-135.17529171451088L-82.74168563078715,-114.8799931907383L-79.64240284069346,-114.00207025473091z" style="fill:rgb(83,212,212)"/><path d="M-37.37660427479688,-110.24928189224623L-49.3099702685708,-126.81198961251857L-39.46270277879056,-107.15762208581471z" style="fill:rgb(233,112,197)"/><path d="M-48.452051890612935,-142.71949895422588L-47.16613727372923,-129.9122777504902L-46.59906930731071,-140.8674856104638zM-77.5926981709326,-137.86261582904126L-79.64240284069346,-114.00207025473091L-76.02526418251486,-113.72563098673409z" style="fill:rgb(83,212,212)"/><path d="M-72.03076988423193,-114.06599849255392L-65.73613508274693,-94.30566996521827L-61.789378046208384,-94.60342275600266z" style="fill:rgb(92,32,204)"/><path d="M-39.46270277879056,-107.15762208581471L-52.14275072890176,-123.80714998322219L-42.23090042007536,-104.16978570350753z" style="fill:rgb(220,94,208)"/><path d="M-82.74168563078715,-114.8799931907383L-69.3169701698327,-94.62343973178473L-79.64240284069346,-114.00207025473091z" style="fill:rgb(51,38,177)"/><path d="M-73.85231246674599,-140.23229337986152L-76.02526418251486,-113.72563098673409L-72.03076988423193,-114.06599849255392z" style="fill:rgb(83,212,212)"/><path d="M-47.16613727372923,-129.9122777504902L-36.05090959466939,-113.32144608705141L-45.791770550843076,-132.9843249142555z" style="fill:rgb(242,130,183)"/><path d="M-46.59906930731071,-140.8674856104638L-47.16613727372923,-129.9122777504902L-45.51018994987046,-138.56856977749348z" style="fill:rgb(83,212,212)"/><path d="M-67.8169023653513,-115.01304108378935L-61.789378046208384,-94.60342275600266L-57.63276047241103,-95.50823299715255z" style="fill:rgb(115,34,214)"/><path d="M-42.23090042007536,-104.16978570350753L-55.55428304462341,-121.01889301301695L-45.573577984895714,-101.4061909273373z" style="fill:rgb(203,77,216)"/><path d="M-69.84493427107503,-142.19814865873806L-72.03076988423193,-114.06599849255392L-67.8169023653513,-115.01304108378935z" style="fill:rgb(83,212,212)"/><path d="M-63.55238467285193,-116.53113863868553L-57.63276047241103,-95.50823299715255L-53.43260666659896,-96.98614088470758z" style="fill:rgb(139,40,220)"/><path d="M-55.55428304462341,-121.01889301301695L-49.35811250067363,-98.97885008196894L-45.573577984895714,-101.4061909273373z" style="fill:rgb(183,62,221)"/><path d="M-45.51018994987046,-138.56856977749348L-45.791770550843076,-132.9843249142555L-45.23493950440733,-135.90736174988203z" style="fill:rgb(83,212,212)"/><path d="M-69.3169701698327,-94.62343973178473L-76.02526418251486,-113.72563098673409L-79.64240284069346,-114.00207025473091z" style="fill:rgb(71,33,192)"/><path d="M-59.4091040754306,-118.56031748940724L-53.43260666659896,-96.98614088470758L-49.35811250067363,-98.97885008196894z" style="fill:rgb(162,50,222)"/><path d="M-61.619844033437,-144.64651429252874L-67.8169023653513,-115.01304108378935L-63.55238467285193,-116.53113863868553z" style="fill:rgb(83,212,212)"/><path d="M-49.3099702685708,-126.81198961251857L-37.37660427479688,-110.24928189224623L-47.16613727372923,-129.9122777504902z" style="fill:rgb(233,112,197)"/><path d="M-61.619844033437,-144.64651429252874L-63.55238467285193,-116.53113863868553L-59.4091040754306,-118.56031748940724zM-48.452051890612935,-142.71949895422588L-49.3099702685708,-126.81198961251857L-47.16613727372923,-129.9122777504902zM-57.70417271338728,-145.03597861029976L-59.4091040754306,-118.56031748940724L-55.55428304462341,-121.01889301301695zM-50.991596042419324,-144.0585784331219L-52.14275072890176,-123.80714998322219L-49.3099702685708,-126.81198961251857zM-45.51018994987046,-138.56856977749348L-47.16613727372923,-129.9122777504902L-45.791770550843076,-132.9843249142555z" style="fill:rgb(83,212,212)"/><path d="M-65.73613508274693,-94.30566996521827L-72.03076988423193,-114.06599849255392L-76.02526418251486,-113.72563098673409z" style="fill:rgb(92,32,204)"/><path d="M-50.991596042419324,-144.0585784331219L-55.55428304462341,-121.01889301301695L-52.14275072890176,-123.80714998322219z" style="fill:rgb(83,212,212)"/><path d="M-52.14275072890176,-123.80714998322219L-39.46270277879056,-107.15762208581471L-49.3099702685708,-126.81198961251857z" style="fill:rgb(220,94,208)"/><path d="M-61.789378046208384,-94.60342275600266L-67.8169023653513,-115.01304108378935L-72.03076988423193,-114.06599849255392z" style="fill:rgb(115,34,214)"/><path d="M-55.55428304462341,-121.01889301301695L-42.23090042007536,-104.16978570350753L-52.14275072890176,-123.80714998322219z" style="fill:rgb(203,77,216)"/><path d="M-57.63276047241103,-95.50823299715255L-63.55238467285193,-116.53113863868553L-67.8169023653513,-115.01304108378935z" style="fill:rgb(139,40,220)"/><path d="M-49.35811250067363,-98.97885008196894L-55.55428304462341,-121.01889301301695L-59.4091040754306,-118.56031748940724z" style="fill:rgb(183,62,221)"/><path d="M-53.43260666659896,-96.98614088470758L-59.4091040754306,-118.56031748940724L-63.55238467285193,-116.53113863868553z" style="fill:rgb(162,50,222)"/></svg>
